<svg width="237" height="52" viewBox="0 0 237 52" fill="none" xmlns="http://www.w3.org/2000/svg">
<path opacity="0.89" d="M165.891 7.53867L160.581 8.03867C156.811 17.3387 155.711 20.1487 155.701 20.2887C155.701 20.4287 158.261 20.4287 161.391 20.2887L167.091 20.0387C170.671 10.7387 171.601 7.81867 171.461 7.53867C171.321 7.25867 168.811 7.25867 165.891 7.53867ZM187.451 7.25867C174.361 7.50867 172.651 7.73867 172.281 9.28867C172.061 10.2487 171.611 13.1787 171.281 15.7887L170.701 20.5387H200.701C201.561 13.9487 202.001 10.7987 202.241 9.28867C202.481 7.77867 202.561 6.63867 202.431 6.75867C202.311 6.87867 195.561 7.10867 187.451 7.25867ZM50.3707 8.28867C50.1407 8.69867 49.6707 11.6287 49.3207 14.7887L48.7007 20.5387H81.7007C81.7007 14.3387 81.0307 11.4087 80.2007 10.0387C78.7107 7.55867 78.5607 7.53867 64.7507 7.53867C57.0807 7.53867 50.6107 7.87867 50.3707 8.28867ZM89.1807 9.78867C87.6207 11.0287 85.7507 13.4987 85.0207 15.2887C84.3007 17.0787 83.7007 18.9887 83.7007 19.5387C83.7007 20.1687 89.8707 20.5387 100.201 20.5387H116.701C116.701 14.3387 116.031 11.4087 115.201 10.0387C113.751 7.61867 113.361 7.53867 102.851 7.53867C93.1107 7.53867 91.7207 7.76867 89.1807 9.78867ZM119.031 9.78867C119.391 11.0287 119.681 13.9487 119.691 16.2887L119.701 20.5387C131.401 20.5387 131.681 20.4287 131.211 18.2887C130.951 17.0487 130.721 14.1287 130.711 11.7887L130.701 7.53867C118.641 7.53867 118.421 7.62867 119.031 9.78867ZM139.041 9.28867C138.701 10.2487 137.581 13.0587 136.541 15.5387C135.501 18.0187 134.661 20.1487 134.681 20.2887C134.691 20.4287 138.521 20.5387 143.201 20.5387H151.701C151.721 15.4987 151.381 12.5687 150.961 10.7687C150.221 7.57867 150.071 7.48867 144.931 7.51867C140.811 7.52867 139.521 7.92867 139.041 9.28867ZM204.241 12.2887C203.881 14.8987 203.391 17.8287 203.141 18.7887C202.731 20.4087 204.011 20.5387 219.701 20.5387H236.701C236.761 14.5387 235.951 11.9387 234.731 10.2887L232.701 7.53867H204.901L204.241 12.2887ZM46.2207 33.7887C45.3007 39.9787 44.3507 46.0487 44.1207 47.2887C43.7207 49.4187 44.0207 49.5387 49.7007 49.5387H55.7007C56.5507 42.1787 57.0007 38.5787 57.2507 36.7887L57.7007 33.5387C73.7407 33.5387 73.9607 33.4687 77.3007 30.0387C79.1707 28.1187 80.7007 25.6387 80.7007 24.5387C80.7007 22.6187 80.0307 22.5387 64.3007 22.5387H47.9007L46.2207 33.7887ZM83.2307 23.7887C83.0007 24.4787 82.3407 28.2987 81.7607 32.2887C81.1707 36.2787 80.6907 40.7787 80.6807 42.2887C80.6707 43.7987 81.5707 46.0487 82.6807 47.2887C84.5407 49.3587 85.5607 49.5387 95.7007 49.5387C106.281 49.5387 106.821 49.4287 109.811 46.7887C112.481 44.4287 113.121 42.8887 114.261 36.0387C114.991 31.6387 115.621 26.7987 115.651 25.2887C115.701 22.6187 115.551 22.5387 110.201 22.5387H104.701C103.841 29.1287 103.391 32.2787 103.151 33.7887C102.731 36.3587 102.381 36.5387 97.7007 36.5387H92.7007C93.5607 29.9487 94.0107 26.7987 94.2507 25.2887C94.6907 22.5687 94.6407 22.5387 89.1707 22.5387C85.6407 22.5387 83.5007 22.9887 83.2307 23.7887ZM120.041 25.2887C120.341 26.7987 120.841 32.8787 121.141 38.7887L121.701 49.5387L135.941 49.0387C140.831 36.0187 141.241 35.4587 141.461 38.0387C141.601 39.6887 141.941 42.9487 142.211 45.2887L142.701 49.5387H156.701C163.671 30.1587 165.701 24.0887 165.701 23.5387C165.701 22.9887 163.221 22.5387 160.201 22.5387C154.981 22.5387 154.651 22.6887 153.701 25.5387C153.151 27.1887 152.471 28.5387 152.201 28.5387C151.921 28.5387 151.921 28.0887 152.201 27.5387C152.471 26.9887 152.471 25.6387 152.201 24.5387C151.751 22.7387 150.871 22.5387 143.201 22.5387H134.701L131.781 29.0387L131.701 22.5387H119.501L120.041 25.2887ZM170.241 23.7887C170.011 24.4787 169.091 29.7587 168.191 35.5387C167.291 41.3187 166.361 46.8287 166.121 47.7887C165.731 49.3987 166.941 49.5387 181.201 49.5387C195.301 49.5387 196.701 49.3787 196.691 47.7887C196.691 46.8287 197.021 43.8987 197.441 41.2687L198.201 36.5087C181.391 36.5387 179.701 36.2687 179.701 35.0387C179.701 33.8087 181.381 33.5387 188.951 33.5587L198.201 33.5787C199.341 27.7387 199.681 25.2487 199.691 24.2887C199.701 22.6987 198.341 22.5387 185.171 22.5387C174.441 22.5387 170.541 22.8687 170.241 23.7887ZM202.231 25.7887C201.921 27.5787 201.011 33.3087 200.191 38.5387C199.371 43.7587 198.701 48.3787 198.701 48.7887C198.701 49.1987 201.171 49.5387 204.201 49.5387C208.201 49.5387 209.831 49.1287 210.201 48.0387C210.471 47.2087 211.031 43.6087 211.451 40.0287L212.201 33.5187C221.181 33.5387 222.591 33.8987 222.311 34.7887C222.101 35.4787 221.651 39.0787 221.311 42.7887L220.701 49.5387C230.561 49.5387 231.811 49.1787 232.261 47.7887C232.561 46.8287 233.011 42.0987 233.261 37.2887C233.501 32.4787 234.151 27.6387 234.701 26.5387C235.251 25.4387 235.701 24.0887 235.701 23.5387C235.701 22.9087 229.541 22.5387 219.241 22.5387H202.771L202.231 25.7887Z" fill="white"/>
<path opacity="0.99" d="M-6.39 1.25C-6.61 1.94 -6.94 3.96 -7.12 5.74C-7.29 7.52 -7.44 9 -7.44 9.03C-7.44 9.06 -6.2 7.26 -4.69 5.04C-3.18 2.82 -1.94 0.78 -1.94 0.5C-1.94 0.22 -2.85 0 -3.96 0C-5.08 0 -6.17 0.56 -6.39 1.25ZM-1.69 5.02C-3.48 7.76 -4.6 9.99 -4.19 9.98C-3.78 9.97 -2.04 7.72 -0.340002 4.98C1.37 2.24 2.49 0.00999998 2.16 0.02C1.83 0.03 0.0999975 2.28 -1.69 5.02ZM2.64 5C0.669997 7.75 -0.490002 10 0.0599976 10C0.609998 10 1.74 8.87 2.56 7.5C3.38 6.12 4.74 3.87 5.58 2.5C6.41 1.12 6.9 0 6.66 0C6.42 0 4.61 2.25 2.64 5ZM7.02 4.43C5.3 6.87 3.93 9.12 3.98 9.43C4.02 9.74 7.43 10 11.56 10C15.68 10 19.06 10.22 19.06 10.5C19.06 10.78 16.92 13.81 14.3 17.25C11.68 20.69 8.24 26.42 6.65 30C5.06 33.58 3.22 39.65 2.55 43.5C1.89 47.35 1.51 50.84 1.71 51.25C1.9 51.66 4.98 52 8.56 52H15.06C15.96 39.99 17.22 33.58 18.44 30C19.67 26.42 22.78 20.24 25.36 16.25C29.19 10.34 30.06 8.17 30.06 4.5V0H10.14L7.02 4.43Z" fill="#FE2E33"/>
<path opacity="0.04" d="M26.56 14.67C26.1 15.03 25.8 16.61 25.89 18.17C25.98 19.72 26.51 21 27.06 21C27.61 21 28.06 19.42 28.06 17.5C28.06 15.57 27.91 14 27.73 14C27.54 14 27.02 14.3 26.56 14.67ZM20.22 37.25C19.62 41.24 18.89 46.19 18.6 48.25C18.13 51.51 18.32 52 20.06 52C21.94 52 22.06 51.33 22.06 41C22.06 34.95 21.89 30 21.68 30C21.47 30 20.82 33.26 20.22 37.25Z" fill="#001F1A"/>
<path opacity="0.05" d="M36.31 2.72C36.72 3.15 37.36 3.16 37.73 2.75C38.09 2.34 37.76 1.99 36.98 1.97C36.2 1.96 35.9 2.29 36.31 2.72ZM31.61 4C31.31 4.55 31.17 5.23 31.31 5.51C31.45 5.79 31.84 5.34 32.18 4.51C32.52 3.68 32.66 3 32.48 3C32.3 3 31.91 3.45 31.61 4ZM33.38 6.75C33.03 7.71 32.49 8.95 32.17 9.5C31.83 10.08 32.1 10.19 32.82 9.75C33.5 9.34 34.06 8.32 34.06 7.5C34.06 6.68 34.62 5.81 35.31 5.58C36.29 5.25 36.28 5.14 35.29 5.08C34.58 5.04 33.73 5.79 33.38 6.75ZM29.5 23.1C29.26 23.59 31.42 24.01 34.31 24.03C37.2 24.04 39.33 23.88 39.06 23.67C38.79 23.45 36.62 23.03 34.25 22.73C31.88 22.43 29.74 22.6 29.5 23.1ZM23.22 25C23.22 26.37 23.44 26.82 23.72 26C24 25.17 24 24.05 23.72 23.5C23.44 22.95 23.22 23.62 23.22 25ZM25.06 27C25.06 27.55 25.51 27.77 26.06 27.5C26.61 27.23 27.06 26.77 27.06 26.5C27.06 26.23 26.61 26 26.06 26C25.51 26 25.06 26.45 25.06 27ZM29.06 26.66C29.89 26.93 30.75 26.89 30.98 26.58C31.21 26.26 30.53 26.04 29.48 26.08C28.1 26.14 27.99 26.3 29.06 26.66ZM22.83 34.2C22.96 34.64 24.64 35 26.56 35C28.48 35 29.96 34.82 29.83 34.61C29.71 34.39 28.03 34.03 26.11 33.81C24.18 33.59 22.71 33.76 22.83 34.2Z" fill="#D22B30"/>
<path opacity="0.6" d="M-7.52 8.4C-7.48 9.18 -7.1 9.63 -6.69 9.4C-6.28 9.18 -6.17 8.55 -6.44 8C-6.72 7.45 -7.09 7 -7.27 7C-7.46 7 -7.57 7.63 -7.52 8.4ZM3.06 10.25C3.06 10.66 6.77 10.93 11.31 10.85C15.85 10.77 18.43 10.56 17.06 10.38C15.68 10.21 11.97 9.94 8.81 9.78C5.65 9.63 3.06 9.84 3.06 10.25ZM-0.69 10.72C-0.28 11.15 0.36 11.16 0.73 10.75C1.09 10.34 0.76 9.99 -0.02 9.97C-0.8 9.96 -1.1 10.29 -0.69 10.72ZM16 38C16 38.83 16.35 39.16 16.78 38.75C17.21 38.34 17.21 37.66 16.78 37.25C16.35 36.84 16 37.17 16 38ZM0.999999 48C0.999999 48.83 1.35 49.16 1.78 48.75C2.21 48.34 2.21 47.66 1.78 47.25C1.35 46.84 0.999999 47.17 0.999999 48ZM15 49C15 49.83 15.35 50.16 15.78 49.75C16.21 49.34 16.21 48.66 15.78 48.25C15.35 47.84 15 48.17 15 49Z" fill="#FE2E34"/>
<path opacity="0.76" d="M30.35 4.5C30.35 7.33 30.54 8.2 30.77 6.5C31 4.85 31 2.6 30.76 1.5C30.52 0.4 30.34 1.75 30.35 4.5ZM0.459994 2C0.789994 2.55 1.28999 3 1.55999 3C1.83999 3 1.83999 2.55 1.55999 2C1.28999 1.45 0.789994 1 0.459994 1C0.129994 1 0.129994 1.45 0.459994 2ZM-1.54001 5C-1.21001 5.55 -0.710006 6 -0.440006 6C-0.160006 6 -0.160006 5.55 -0.440006 5C-0.710006 4.45 -1.21001 4 -1.54001 4C-1.87001 4 -1.87001 4.45 -1.54001 5ZM-3.54001 8C-3.21001 8.55 -2.71001 9 -2.44001 9C-2.16001 9 -2.16001 8.55 -2.44001 8C-2.71001 7.45 -3.21001 7 -3.54001 7C-3.87001 7 -3.87001 7.45 -3.54001 8ZM15.22 46C15.22 47.38 15.44 47.83 15.72 47C16 46.17 16 45.05 15.72 44.5C15.44 43.95 15.22 44.63 15.22 46Z" fill="#FE2E33"/>
<path opacity="0.37" d="M-8 6C-8 6.82 -7.65 7.16 -7.22 6.75C-6.79 6.34 -6.79 5.66 -7.22 5.25C-7.65 4.84 -8 5.18 -8 6ZM16.92 12.75C15.67 14.36 15.71 14.38 17.35 13C18.34 12.18 19.13 11.39 19.1 11.25C19.08 11.11 18.89 11 18.67 11C18.46 11 17.67 11.79 16.92 12.75ZM0.999999 46C0.999999 46.83 1.35 47.16 1.78 46.75C2.21 46.34 2.21 45.66 1.78 45.25C1.35 44.84 0.999999 45.17 0.999999 46Z" fill="#FB2E34"/>
<path opacity="0.13" d="M7.45999 1C7.78999 1.55 8.28999 2 8.55999 2C8.82999 2 8.82999 1.55 8.55999 1C8.28999 0.45 7.78999 0 7.45999 0C7.12999 0 7.12999 0.45 7.45999 1ZM5.45999 4C5.78999 4.55 6.27999 5 6.55999 5C6.82999 5 6.82999 4.55 6.55999 4C6.27999 3.45 5.78999 3 5.45999 3C5.12999 3 5.12999 3.45 5.45999 4ZM3.45999 7C3.78999 7.55 4.27999 8 4.55999 8C4.82999 8 4.82999 7.55 4.55999 7C4.27999 6.45 3.78999 6 3.45999 6C3.12999 6 3.12999 6.45 3.45999 7Z" fill="#FA2D33"/>
<path opacity="0.1" d="M180.06 24C180.06 24.55 180.51 25 181.06 25C181.61 25 182.19 24.55 182.35 24C182.51 23.45 182.06 23 181.35 23C180.64 23 180.06 23.45 180.06 24ZM123.56 48.67C123.1 49.03 122.8 49.93 122.89 50.67C122.99 51.4 123.74 52 124.56 52C125.39 52 126.06 51.11 126.06 50C126.06 48.9 125.69 48 125.23 48C124.77 48 124.02 48.3 123.56 48.67ZM91.06 51C89.92 51.74 90.34 51.97 92.81 51.98C94.6 51.99 96.06 51.55 96.06 51C96.06 50.45 95.27 50.01 94.31 50.02C93.35 50.02 91.89 50.47 91.06 51Z" fill="#000700"/>
<path opacity="0.07" d="M64 8C64 8.82 64.35 9.16 64.78 8.75C65.21 8.34 65.21 7.66 64.78 7.25C64.35 6.84 64 7.18 64 8ZM62.31 10.72C62.72 11.15 63.36 11.16 63.73 10.75C64.09 10.34 63.76 9.99 62.98 9.97C62.2 9.96 61.9 10.29 62.31 10.72ZM180.06 36.66C180.88 36.93 181.75 36.89 181.98 36.58C182.21 36.26 181.53 36.04 180.48 36.08C179.1 36.14 178.99 36.3 180.06 36.66Z" fill="#00DFDF"/>
<path opacity="0.05" d="M25.55 22.17C25.18 22.9 25.11 24.17 25.39 25C25.71 25.94 25.93 25.67 25.98 24.25C26.02 23.01 26.51 22 27.06 22C27.61 22 28.29 22.56 28.56 23.25C28.83 23.94 28.9 23.82 28.71 23C28.52 22.17 27.88 21.35 27.29 21.17C26.7 20.98 25.92 21.43 25.55 22.17ZM27.22 27.69C28.13 27.95 29.48 27.93 30.22 27.66C30.96 27.38 30.21 27.17 28.56 27.19C26.91 27.22 26.31 27.44 27.22 27.69ZM23 30C23 30.83 23.35 31.16 23.78 30.75C24.21 30.34 24.21 29.66 23.78 29.25C23.35 28.84 23 29.17 23 30Z" fill="#BE2E33"/>
<path opacity="0.11" d="M93.61 49C93.31 49.55 93.74 50 94.56 50C95.39 50 95.84 49.55 95.56 49C95.28 48.45 94.86 48 94.61 48C94.36 48 93.91 48.45 93.61 49Z" fill="#777777"/>
</svg>
